<svg xmlns="http://www.w3.org/2000/svg" data-name="Your Icon" viewBox="0 0 100 125" x="0px" y="0px"><title>NOUN-PROJECT_MENU-ET</title><g><path d="M88,32.07H12.05a2.5,2.5,0,0,1,0-5H88a2.5,2.5,0,0,1,0,5Z"/><path d="M88,52.5H12.05a2.5,2.5,0,1,1,0-5H88a2.5,2.5,0,0,1,0,5Z"/><path d="M88,72.93H12.05a2.5,2.5,0,1,1,0-5H88a2.5,2.5,0,0,1,0,5Z"/></g><text x="0" y="115" fill="#000000" font-size="5px" font-weight="bold" font-family="'Helvetica Neue', Helvetica, Arial-Unicode, Arial, Sans-serif">Created by Andreav</text><text x="0" y="120" fill="#000000" font-size="5px" font-weight="bold" font-family="'Helvetica Neue', Helvetica, Arial-Unicode, Arial, Sans-serif">from the Noun Project</text></svg>